<svg xmlns="http://www.w3.org/2000/svg" width="198" height="45" viewBox="0 0 198 45"><title>button</title><g fill="none" fill-rule="evenodd"><rect width="195" height="43" x="3" y="2" fill="#137CCB" rx="5"/><rect width="195" height="43" fill="#0091FF" rx="5"/><path fill="#FFF" fill-rule="nonzero" d="M22.467 28l2.748-9.331h-2.953l-1.402 6.549h-.123l-1.435-6.55H16.15L18.96 28h3.507zm6.596 0v-9.331h-2.7V28h2.7zm8.532 0v-2.092h-3.876v-1.627h3.623v-1.9h-3.623v-1.62h3.876v-2.092h-6.55V28h6.55zm5.783 0l1.429-5.36h.095L46.324 28h2.536l2.318-9.331h-2.803l-.95 5.845h-.13l-1.388-5.845h-2.105l-1.395 5.845h-.123l-.964-5.845h-2.802L40.842 28h2.536zm13.843 0l.471-1.866h2.646L60.796 28h2.878l-2.858-9.331h-3.39L54.548 28h2.673zm2.673-3.78H58.15l.814-3.275h.137l.793 3.275zM71.064 28v-2.222H67.55v-7.11h-2.7V28h6.213zm7.635 0v-2.222h-3.513v-7.11h-2.7V28h6.213zm7.041 0v-3.172h.875L88.133 28h2.973l-1.838-3.52c.58-.253 1.64-1.128 1.64-2.64 0-1.906-1.244-3.171-3.623-3.171h-4.19V28h2.645zm1.128-4.997H85.74v-2.379h1.135c.663 0 1.251.403 1.251 1.21 0 .793-.56 1.169-1.258 1.169zM99.022 28v-2.092h-3.876v-1.627h3.624v-1.9h-3.624v-1.62h3.876v-2.092h-6.548V28h6.548zm4.457 0v-2.625h1.443c2.31 0 3.425-1.518 3.425-3.33 0-1.776-1.087-3.376-3.39-3.376h-4.17V28h2.692zm.773-4.587h-.78V20.68h.78c.827 0 1.367.478 1.367 1.367 0 .875-.54 1.367-1.367 1.367zm9.454 4.751c2.803 0 4.334-1.709 4.334-4.334v-.964c0-2.632-1.531-4.354-4.334-4.354-2.789 0-4.34 1.702-4.34 4.354v.964c0 2.625 1.551 4.334 4.34 4.334zm0-2.16c-.964 0-1.572-.738-1.572-2.16v-1.012c0-1.415.608-2.167 1.572-2.167.964 0 1.572.752 1.572 2.167v1.012c0 1.422-.608 2.16-1.572 2.16zm9.447 2.16c2.673 0 3.986-1.306 3.986-3.11 0-1.866-1.285-2.543-2.612-2.762l-1.237-.205c-.772-.13-1.23-.362-1.23-.793 0-.444.362-.814 1.134-.814.862 0 1.272.493 1.306.93h2.454c-.014-1.45-1.203-2.898-3.76-2.898-2.276 0-3.814 1.107-3.814 3 0 1.675 1.087 2.462 2.611 2.742l1.176.219c.861.164 1.326.355 1.326.868 0 .444-.348.82-1.271.82-.93 0-1.429-.478-1.456-.964h-2.543c.02 1.443.984 2.967 3.93 2.967zm8.251-.164v-9.331h-2.7V28h2.7zm6.344 0v-7.157h2.413v-2.174h-7.533v2.174h2.413V28h2.707zm7.5.164c2.802 0 4.333-1.709 4.333-4.334v-.964c0-2.632-1.531-4.354-4.334-4.354-2.789 0-4.34 1.702-4.34 4.354v.964c0 2.625 1.551 4.334 4.34 4.334zm0-2.16c-.965 0-1.573-.738-1.573-2.16v-1.012c0-1.415.608-2.167 1.572-2.167.964 0 1.572.752 1.572 2.167v1.012c0 1.422-.608 2.16-1.572 2.16zM153.832 28v-3.172h.875L156.226 28h2.973l-1.839-3.52c.581-.253 1.641-1.128 1.641-2.64 0-1.906-1.244-3.171-3.623-3.171h-4.19V28h2.645zm1.128-4.997h-1.128v-2.379h1.135c.663 0 1.25.403 1.25 1.21 0 .793-.56 1.169-1.257 1.169zM163.267 28v-9.331h-2.7V28h2.7zm8.53 0v-2.092h-3.875v-1.627h3.623v-1.9h-3.623v-1.62h3.876v-2.092h-6.549V28h6.549zm5.271.164c2.673 0 3.986-1.306 3.986-3.11 0-1.866-1.285-2.543-2.612-2.762l-1.237-.205c-.772-.13-1.23-.362-1.23-.793 0-.444.362-.814 1.134-.814.862 0 1.272.493 1.306.93h2.454c-.014-1.45-1.203-2.898-3.76-2.898-2.276 0-3.814 1.107-3.814 3 0 1.675 1.087 2.462 2.611 2.742l1.176.219c.861.164 1.326.355 1.326.868 0 .444-.348.82-1.271.82-.93 0-1.429-.478-1.456-.964h-2.543c.02 1.443.984 2.967 3.93 2.967z"/></g></svg>